<svg width="98" height="32" viewBox="0 0 98 32" fill="none" xmlns="http://www.w3.org/2000/svg">
<g clip-path="url(#clip0_2048_1340)">
<path d="M89.7576 0.000104H7.77057C7.47172 0.000104 7.17645 0.000104 6.87839 0.001704C6.62888 0.003304 6.38137 0.007952 6.12946 0.011864C5.58222 0.0181854 5.03625 0.065445 4.49633 0.153232C3.95715 0.24293 3.43487 0.412037 2.94715 0.654832C2.46002 0.899681 2.01491 1.21784 1.62798 1.59776C1.23902 1.97661 0.914785 2.41452 0.667754 2.89463C0.420041 3.37379 0.248276 3.88725 0.158391 4.41729C0.0676522 4.94665 0.0188247 5.48212 0.0123469 6.01889C0.00478393 6.26417 0.00398525 6.51026 0 6.75558V25.247C0.00398525 25.4954 0.00478393 25.736 0.0123469 25.9845C0.0188267 26.5212 0.0676542 27.0567 0.158391 27.586C0.248028 28.1164 0.419803 28.6301 0.667754 29.1095C0.914673 29.588 1.23895 30.0242 1.62798 30.4009C2.01344 30.7825 2.45884 31.1009 2.94715 31.3439C3.43487 31.5873 3.95709 31.7574 4.49633 31.8485C5.03635 31.9356 5.58225 31.9829 6.12946 31.9899C6.38137 31.9954 6.62888 31.9985 6.87839 31.9985C7.17644 32.0001 7.47174 32.0001 7.77057 32.0001H89.7576C90.0505 32.0001 90.3482 32.0001 90.6411 31.9985C90.8894 31.9985 91.1441 31.9954 91.3924 31.9899C91.9386 31.9832 92.4835 31.936 93.0224 31.8485C93.5633 31.7568 94.0874 31.5867 94.5775 31.3439C95.0654 31.1007 95.5103 30.7824 95.8955 30.4009C96.2835 30.0227 96.6085 29.5869 96.8585 29.1095C97.1046 28.6298 97.2747 28.1161 97.363 27.586C97.4539 27.0566 97.5045 26.5213 97.5143 25.9845C97.5175 25.736 97.5175 25.4954 97.5175 25.247C97.5238 24.9563 97.5238 24.6673 97.5238 24.3719V7.62901C97.5238 7.33604 97.5238 7.04541 97.5175 6.75558C97.5175 6.51026 97.5175 6.26417 97.5143 6.01886C97.5045 5.48204 97.4539 4.94669 97.363 4.41726C97.2744 3.88753 97.1043 3.37411 96.8585 2.8946C96.3554 1.93226 95.5577 1.14892 94.5775 0.65476C94.0874 0.412558 93.5633 0.243496 93.0224 0.15316C92.4835 0.0649862 91.9386 0.0177102 91.3924 0.011752C91.1441 0.007848 90.8894 0.00316 90.6411 0.0016C90.3482 0 90.0505 0.000104 89.7576 0.000104Z" fill="#A6A6A6"/>
<path d="M6.8824 31.3C6.63409 31.3 6.39178 31.2969 6.14542 31.2914C5.63507 31.2849 5.1259 31.2413 4.62211 31.161C4.15235 31.0815 3.69727 30.9338 3.2719 30.7226C2.85043 30.5132 2.46601 30.2386 2.13337 29.9094C1.79592 29.584 1.51498 29.2066 1.30168 28.7922C1.08602 28.375 0.93678 27.9279 0.859143 27.4664C0.775301 26.9705 0.729939 26.469 0.723449 25.9664C0.718282 25.7977 0.711517 25.2359 0.711517 25.2359V6.75547C0.711517 6.75547 0.718722 6.20234 0.723489 6.03984C0.729704 5.53798 0.774802 5.03732 0.858393 4.54218C0.936174 4.0794 1.08553 3.631 1.3013 3.2125C1.51382 2.79835 1.7932 2.42069 2.12862 2.09414C2.46366 1.76449 2.84931 1.48848 3.2715 1.27616C3.6959 1.06567 4.15011 0.918983 4.61892 0.841013C5.12437 0.759866 5.6353 0.715994 6.14743 0.709765L6.8828 0.699997H90.6371L91.3813 0.710157C91.8887 0.716076 92.395 0.759557 92.8958 0.840229C93.3694 0.919177 93.8283 1.06689 94.2576 1.27851C95.1034 1.70639 95.7916 2.38333 96.2257 3.21445C96.4381 3.63006 96.5851 4.0748 96.6619 4.53359C96.7465 5.03279 96.7939 5.53739 96.8036 6.04336C96.8059 6.26992 96.8059 6.51328 96.8059 6.75547C96.8124 7.05547 96.8124 7.34101 96.8124 7.6289V24.3718C96.8124 24.6625 96.8124 24.9461 96.8059 25.232C96.8059 25.4922 96.8059 25.7305 96.8027 25.9758C96.7932 26.4727 96.7467 26.9683 96.6635 27.4586C96.5874 27.9234 96.439 28.374 96.2234 28.7946C96.0086 29.2045 95.7292 29.5786 95.3957 29.9031C95.0628 30.2341 94.6777 30.5104 94.2552 30.7211C93.8272 30.9339 93.3689 31.0822 92.8958 31.161C92.3921 31.2417 91.8829 31.2853 91.3725 31.2914C91.1338 31.2969 90.8838 31.3 90.6411 31.3L89.7577 31.3016L6.8824 31.3Z" fill="black"/>
<path d="M20.1862 16.2405C20.1949 15.5728 20.3756 14.9181 20.7114 14.3373C21.0472 13.7566 21.5272 13.2686 22.1067 12.9189C21.7386 12.4028 21.2529 11.978 20.6882 11.6784C20.1236 11.3787 19.4956 11.2125 18.854 11.1928C17.4854 11.0517 16.1587 11.9966 15.4613 11.9966C14.7504 11.9966 13.6767 11.2068 12.5205 11.2301C11.7726 11.2538 11.0437 11.4673 10.4049 11.8498C9.76601 12.2322 9.23898 12.7706 8.87512 13.4124C7.29895 16.0911 8.47463 20.028 9.98447 22.1933C10.7399 23.2535 11.6227 24.4379 12.7779 24.3959C13.9083 24.3499 14.3305 23.6883 15.6951 23.6883C17.0469 23.6883 17.443 24.3959 18.6217 24.3692C19.8347 24.3499 20.5989 23.3042 21.3278 22.2339C21.8706 21.4784 22.2882 20.6434 22.5653 19.7599C21.8606 19.4673 21.2592 18.9776 20.8361 18.3517C20.413 17.7259 20.187 16.9916 20.1862 16.2405Z" fill="white"/>
<path d="M17.9599 9.76871C18.6213 8.98934 18.9471 7.9876 18.8682 6.97621C17.8578 7.08039 16.9244 7.55444 16.2541 8.3039C15.9264 8.67003 15.6754 9.09598 15.5154 9.5574C15.3555 10.0188 15.2898 10.5066 15.322 10.993C15.8274 10.9981 16.3274 10.8906 16.7844 10.6785C17.2413 10.4664 17.6432 10.1554 17.9599 9.76871Z" fill="white"/>
<path d="M34.4755 21.7117H30.6179L29.6915 24.3969H28.0576L31.7114 14.4625H33.409L37.0629 24.3969H35.4011L34.4755 21.7117ZM31.0174 20.4727H34.0752L32.5678 16.1148H32.5257L31.0174 20.4727Z" fill="white"/>
<path d="M44.9541 20.7758C44.9541 23.0266 43.7268 24.4727 41.8748 24.4727C41.4057 24.4967 40.9391 24.3907 40.5285 24.1665C40.1179 23.9424 39.78 23.6094 39.5533 23.2055H39.5182V26.793H38.0036V17.1539H39.4697V18.3586H39.4975C39.7347 17.9566 40.0784 17.6253 40.4921 17.3998C40.9058 17.1743 41.374 17.0631 41.847 17.0781C43.7196 17.0781 44.9541 18.5312 44.9541 20.7758ZM43.3973 20.7758C43.3973 19.3094 42.6253 18.3453 41.4474 18.3453C40.2902 18.3453 39.5119 19.3297 39.5119 20.7758C39.5119 22.2352 40.2902 23.2125 41.4474 23.2125C42.6253 23.2125 43.3973 22.2555 43.3973 20.7758Z" fill="white"/>
<path d="M53.0752 20.7758C53.0752 23.0266 51.848 24.4727 49.996 24.4727C49.5268 24.4967 49.0602 24.3907 48.6497 24.1666C48.2391 23.9424 47.9011 23.6094 47.6744 23.2055H47.6393V26.793H46.1248V17.1539H47.5908V18.3586H47.6186C47.8558 17.9566 48.1995 17.6253 48.6132 17.3998C49.0269 17.1743 49.4951 17.0632 49.9681 17.0781C51.8408 17.0781 53.0752 18.5312 53.0752 20.7758ZM51.5185 20.7758C51.5185 19.3094 50.7465 18.3453 49.5686 18.3453C48.4114 18.3453 47.633 19.3297 47.633 20.7758C47.633 22.2352 48.4114 23.2125 49.5686 23.2125C50.7465 23.2125 51.5185 22.2555 51.5185 20.7758Z" fill="white"/>
<path d="M58.4426 21.6289C58.5548 22.6141 59.5298 23.2609 60.8621 23.2609C62.1387 23.2609 63.0571 22.614 63.0571 21.7257C63.0571 20.9546 62.5032 20.4929 61.1916 20.1765L59.88 19.8664C58.0216 19.4257 57.1589 18.5726 57.1589 17.1882C57.1589 15.4742 58.6806 14.2968 60.8414 14.2968C62.9799 14.2968 64.4459 15.4742 64.4953 17.1882H62.9664C62.8749 16.1968 62.04 15.5984 60.8199 15.5984C59.5998 15.5984 58.7649 16.2039 58.7649 17.0851C58.7649 17.7875 59.2982 18.2007 60.6026 18.5171L61.7176 18.7859C63.7941 19.2679 64.6568 20.0867 64.6568 21.5398C64.6568 23.3984 63.1486 24.5624 60.7499 24.5624C58.5055 24.5624 56.9901 23.4257 56.8922 21.6288L58.4426 21.6289Z" fill="white"/>
<path d="M67.9255 15.4398V17.1539H69.3287V18.3312H67.9255V22.3242C67.9255 22.9445 68.2065 23.2336 68.8233 23.2336C68.9898 23.2307 69.1562 23.2193 69.3215 23.1992V24.3695C69.0442 24.4204 68.7623 24.4434 68.4802 24.4382C66.9864 24.4382 66.4038 23.8875 66.4038 22.4828V18.3312H65.331V17.1539H66.4038V15.4398H67.9255Z" fill="white"/>
<path d="M70.1413 20.7758C70.1413 18.4969 71.5086 17.0648 73.6407 17.0648C75.7801 17.0648 77.141 18.4968 77.141 20.7758C77.141 23.0609 75.7872 24.4867 73.6407 24.4867C71.495 24.4867 70.1413 23.0609 70.1413 20.7758ZM75.5978 20.7758C75.5978 19.2125 74.868 18.2898 73.6407 18.2898C72.4135 18.2898 71.6845 19.2195 71.6845 20.7758C71.6845 22.3453 72.4135 23.2609 73.6407 23.2609C74.868 23.2609 75.5978 22.3453 75.5978 20.7758Z" fill="white"/>
<path d="M78.3897 17.1539H79.8343V18.3867H79.8693C79.967 18.0017 80.1968 17.6614 80.52 17.4231C80.8433 17.1848 81.2402 17.063 81.6441 17.0781C81.8187 17.0775 81.9927 17.0961 82.163 17.1336V18.5242C81.9427 18.4581 81.7128 18.4278 81.4825 18.4344C81.2625 18.4256 81.0431 18.4637 80.8395 18.546C80.6359 18.6283 80.4528 18.7529 80.3029 18.9112C80.153 19.0695 80.0397 19.2578 79.9709 19.4631C79.9021 19.6685 79.8794 19.886 79.9043 20.1008V24.3969H78.3897L78.3897 17.1539Z" fill="white"/>
<path d="M89.146 22.2695C88.9423 23.5844 87.6379 24.4867 85.9689 24.4867C83.8224 24.4867 82.4901 23.075 82.4901 20.8101C82.4901 18.5383 83.8296 17.0648 85.9052 17.0648C87.9467 17.0648 89.2304 18.4414 89.2304 20.6375V21.1469H84.019V21.2367C83.9949 21.5033 84.0289 21.7718 84.1187 22.0245C84.2085 22.2771 84.3521 22.5082 84.5398 22.7022C84.7275 22.8962 84.9552 23.0489 85.2076 23.1499C85.46 23.2509 85.7315 23.2981 86.0039 23.2883C86.3618 23.3212 86.721 23.2398 87.028 23.0563C87.335 22.8727 87.5735 22.5968 87.7079 22.2695L89.146 22.2695ZM84.0262 20.1078H87.7151C87.7287 19.8681 87.6916 19.6283 87.6063 19.4033C87.521 19.1783 87.3893 18.9731 87.2193 18.8005C87.0494 18.6279 86.8449 18.4916 86.6188 18.4002C86.3926 18.3089 86.1497 18.2644 85.9052 18.2695C85.6586 18.2681 85.4141 18.3146 85.1859 18.4064C84.9576 18.4982 84.7502 18.6334 84.5755 18.8043C84.4008 18.9752 84.2623 19.1784 84.168 19.4021C84.0737 19.6259 84.0255 19.8657 84.0262 20.1078Z" fill="white"/>
<path d="M28.8729 9.37305C28.8729 7.825 29.7118 6.86875 31.0632 6.86875C31.5503 6.84507 32.0286 7.00204 32.4032 7.3085C32.7779 7.61496 33.0214 8.0485 33.0855 8.52305H32.3334C32.2703 8.24182 32.1085 7.9913 31.8763 7.8153C31.6441 7.63929 31.3563 7.54898 31.0632 7.56016C30.1901 7.56016 29.6441 8.25821 29.6441 9.37305C29.6441 10.4848 30.1901 11.1824 31.0664 11.1824C31.3488 11.2032 31.6298 11.1267 31.861 10.9662C32.0922 10.8056 32.2593 10.5711 32.3334 10.3027H33.0855C33.0122 10.766 32.7635 11.1851 32.3892 11.4763C32.015 11.7675 31.5426 11.9095 31.0664 11.8738C29.715 11.8738 28.8729 10.918 28.8729 9.37305Z" fill="white"/>
<path d="M33.9116 9.95547C33.8886 9.71874 33.9162 9.47989 33.9926 9.25423C34.0691 9.02858 34.1928 8.8211 34.3557 8.64512C34.5187 8.46913 34.7173 8.32852 34.9389 8.2323C35.1604 8.13608 35.4 8.08637 35.6423 8.08637C35.8846 8.08637 36.1241 8.13608 36.3457 8.2323C36.5672 8.32852 36.7659 8.46913 36.9288 8.64512C37.0918 8.8211 37.2154 9.02858 37.2919 9.25423C37.3684 9.47989 37.396 9.71874 37.3729 9.95547C37.3964 10.1925 37.3692 10.4316 37.2929 10.6577C37.2166 10.8837 37.093 11.0915 36.93 11.2679C36.767 11.4442 36.5683 11.5851 36.3465 11.6815C36.1247 11.778 35.8848 11.8278 35.6423 11.8278C35.3997 11.8278 35.1599 11.778 34.9381 11.6815C34.7163 11.5851 34.5175 11.4442 34.3545 11.2679C34.1916 11.0915 34.0679 10.8837 33.9917 10.6577C33.9154 10.4316 33.8881 10.1925 33.9116 9.95547ZM36.628 9.95547C36.628 9.17462 36.2706 8.71798 35.6435 8.71798C35.0139 8.71798 34.6598 9.17462 34.6598 9.95548C34.6598 10.7426 35.014 11.1957 35.6435 11.1957C36.2706 11.1957 36.628 10.7395 36.628 9.95547Z" fill="white"/>
<path d="M38.3447 8.15586H39.0419V8.72812H39.096C39.1878 8.52259 39.3427 8.35029 39.539 8.23525C39.7353 8.1202 39.9632 8.06814 40.1911 8.08632C40.3697 8.07315 40.549 8.09958 40.7157 8.16365C40.8825 8.22773 41.0324 8.32781 41.1544 8.45649C41.2764 8.58516 41.3673 8.73913 41.4204 8.90699C41.4736 9.07484 41.4876 9.25228 41.4613 9.42616V11.7582H40.7371V9.60469C40.7371 9.02579 40.4808 8.73789 39.9452 8.73789C39.824 8.73235 39.7029 8.75261 39.5904 8.79727C39.4779 8.84193 39.3766 8.90995 39.2933 8.99666C39.2101 9.08337 39.147 9.18671 39.1082 9.29962C39.0695 9.41252 39.0561 9.53232 39.0689 9.65078V11.7582H38.3447V8.15586Z" fill="white"/>
<path d="M43.923 8.08633C44.7483 8.08633 45.2879 8.46328 45.3588 9.09844H44.664C44.5971 8.83398 44.3337 8.66524 43.923 8.66524C43.5187 8.66524 43.2115 8.85352 43.2115 9.13477C43.2115 9.34997 43.397 9.48555 43.7949 9.575L44.4045 9.71367C45.1025 9.87265 45.4296 10.1672 45.4296 10.6965C45.4296 11.3746 44.7858 11.8277 43.9095 11.8277C43.0364 11.8277 42.4673 11.4406 42.4029 10.8023H43.1279C43.1904 10.9543 43.3031 11.0812 43.4478 11.1627C43.5926 11.2442 43.7611 11.2757 43.9262 11.2519C44.3775 11.2519 44.6982 11.0535 44.6982 10.7656C44.6982 10.5508 44.5263 10.4117 44.1586 10.3258L43.5187 10.1801C42.8207 10.018 42.4976 9.71054 42.4976 9.1746C42.4976 8.53593 43.0937 8.08633 43.923 8.08633Z" fill="white"/>
<path d="M46.3441 7.55351L47.1901 6.41563H48.0393L47.0922 7.55351H46.3441ZM46.4189 8.15586H47.1399V11.7582H46.4189V8.15586Z" fill="white"/>
<path d="M48.2677 12.1188H49.0087C49.07 12.3801 49.3764 12.5488 49.865 12.5488C50.4683 12.5488 50.8257 12.2676 50.8257 11.7914V11.1H50.7715C50.6579 11.2935 50.492 11.4525 50.2922 11.5593C50.0923 11.6661 49.8663 11.7165 49.639 11.7051C48.7023 11.7051 48.1229 10.9941 48.1229 9.91563C48.1229 8.81723 48.7086 8.0961 49.6462 8.0961C49.8791 8.08814 50.1098 8.14317 50.313 8.25519C50.5163 8.3672 50.6843 8.53189 50.7986 8.73126H50.8559V8.15587H51.5499V11.7879C51.5499 12.6117 50.8925 13.1344 49.8547 13.1344C48.9378 13.1344 48.3449 12.7309 48.2677 12.1188ZM50.8392 9.91212C50.8392 9.19452 50.4612 8.73477 49.8444 8.73477C49.2212 8.73477 48.871 9.19454 48.871 9.91212C48.871 10.6301 49.2212 11.0899 49.8444 11.0899C50.4651 11.0898 50.8392 10.6336 50.8392 9.91212Z" fill="white"/>
<path d="M55.7979 11.7582H55.0999V11.1859H55.0426C54.9498 11.3936 54.7928 11.5674 54.5938 11.6825C54.3949 11.7977 54.164 11.8485 53.9339 11.8277C53.7564 11.8401 53.5784 11.8133 53.4128 11.7493C53.2472 11.6853 53.0984 11.5857 52.9771 11.4578C52.8559 11.33 52.7653 11.1771 52.7121 11.0104C52.6589 10.8437 52.6444 10.6675 52.6697 10.4945V8.15586H53.3951V10.3094C53.3951 10.8914 53.6339 11.1695 54.1664 11.1695C54.2898 11.181 54.4143 11.1653 54.5308 11.1236C54.6473 11.0818 54.7528 11.0151 54.8397 10.9282C54.9265 10.8413 54.9925 10.7365 55.0329 10.6214C55.0732 10.5063 55.0869 10.3838 55.0729 10.2629V8.15586H55.7979V11.7582Z" fill="white"/>
<path d="M60.0551 10.7855C59.9567 11.1148 59.7435 11.3996 59.4528 11.5901C59.1621 11.7806 58.8124 11.8647 58.4649 11.8277C58.2231 11.834 57.9829 11.7885 57.7608 11.6945C57.5387 11.6005 57.3401 11.4602 57.1788 11.2832C57.0175 11.1063 56.8974 10.8971 56.8267 10.67C56.7561 10.443 56.7366 10.2035 56.7697 9.96836C56.7375 9.73245 56.7573 9.4925 56.8278 9.26477C56.8983 9.03703 57.0178 8.82681 57.1782 8.64836C57.3387 8.4699 57.5363 8.32736 57.7577 8.23039C57.9792 8.13343 58.2193 8.0843 58.4617 8.08633C59.4828 8.08633 60.0988 8.77113 60.0988 9.90233V10.1504H57.5075V10.1902C57.4961 10.3224 57.513 10.4555 57.5571 10.5809C57.6013 10.7063 57.6716 10.8213 57.7636 10.9184C57.8556 11.0156 57.9673 11.0928 58.0915 11.1451C58.2157 11.1975 58.3497 11.2237 58.4848 11.2222C58.658 11.2427 58.8336 11.212 58.989 11.1343C59.1445 11.0565 59.2729 10.9351 59.3579 10.7855L60.0551 10.7855ZM57.5075 9.62461H59.3611C59.3702 9.50371 59.3534 9.38227 59.3119 9.2681C59.2704 9.15392 59.205 9.04954 59.1199 8.96165C59.0348 8.87377 58.932 8.80432 58.8179 8.75778C58.7039 8.71124 58.5812 8.68864 58.4577 8.69141C58.3325 8.68987 58.2082 8.71295 58.0921 8.75931C57.9761 8.80566 57.8707 8.87435 57.7821 8.96132C57.6936 9.04829 57.6236 9.15178 57.5765 9.2657C57.5293 9.37962 57.5058 9.50165 57.5075 9.62461Z" fill="white"/>
<path d="M61.1048 6.7496H61.8291V11.7582H61.1048V6.7496Z" fill="white"/>
<path d="M62.8359 9.95547C62.8128 9.71874 62.8404 9.47989 62.9169 9.25423C62.9933 9.02858 63.117 8.8211 63.28 8.64512C63.4429 8.46913 63.6415 8.32852 63.8631 8.2323C64.0846 8.13608 64.3242 8.08637 64.5665 8.08637C64.8088 8.08637 65.0484 8.13608 65.2699 8.2323C65.4915 8.32852 65.6901 8.46913 65.853 8.64512C66.016 8.8211 66.1397 9.02858 66.2162 9.25423C66.2926 9.47989 66.3202 9.71874 66.2971 9.95547C66.3207 10.1925 66.2934 10.4316 66.2171 10.6577C66.1408 10.8837 66.0172 11.0915 65.8543 11.2679C65.6913 11.4442 65.4925 11.5851 65.2707 11.6815C65.0489 11.778 64.8091 11.8278 64.5665 11.8278C64.324 11.8278 64.0841 11.778 63.8623 11.6815C63.6405 11.5851 63.4418 11.4442 63.2788 11.2679C63.1158 11.0915 62.9922 10.8837 62.9159 10.6577C62.8396 10.4316 62.8124 10.1925 62.8359 9.95547ZM65.5522 9.95547C65.5522 9.17462 65.1948 8.71798 64.5677 8.71798C63.9382 8.71798 63.584 9.17462 63.584 9.95548C63.584 10.7426 63.9382 11.1957 64.5677 11.1957C65.1949 11.1957 65.5522 10.7395 65.5522 9.95547Z" fill="white"/>
<path d="M72.3633 10.7855C72.2649 11.1148 72.0517 11.3996 71.761 11.5901C71.4703 11.7806 71.1207 11.8647 70.7732 11.8277C70.5314 11.834 70.2911 11.7885 70.069 11.6945C69.847 11.6005 69.6484 11.4602 69.4871 11.2832C69.3258 11.1063 69.2056 10.8971 69.135 10.67C69.0643 10.443 69.0449 10.2035 69.0779 9.96836C69.0457 9.73245 69.0656 9.4925 69.136 9.26477C69.2065 9.03703 69.326 8.82681 69.4865 8.64836C69.6469 8.4699 69.8446 8.32736 70.066 8.23039C70.2874 8.13343 70.5275 8.0843 70.77 8.08633C71.7911 8.08633 72.4071 8.77113 72.4071 9.90233V10.1504H69.8157V10.1902C69.8044 10.3224 69.8213 10.4555 69.8654 10.5809C69.9095 10.7063 69.9798 10.8213 70.0719 10.9184C70.1639 11.0156 70.2756 11.0928 70.3998 11.1451C70.524 11.1975 70.6579 11.2237 70.7931 11.2222C70.9663 11.2427 71.1418 11.212 71.2973 11.1343C71.4528 11.0565 71.5811 10.9351 71.6661 10.7855L72.3633 10.7855ZM69.8157 9.62461H71.6694C71.6785 9.50371 71.6617 9.38227 71.6202 9.2681C71.5787 9.15392 71.5133 9.04954 71.4282 8.96165C71.3431 8.87377 71.2403 8.80432 71.1262 8.75778C71.0122 8.71124 70.8895 8.68864 70.766 8.69141C70.6408 8.68986 70.5164 8.71294 70.4004 8.7593C70.2844 8.80565 70.179 8.87434 70.0904 8.96131C70.0018 9.04828 69.9319 9.15177 69.8847 9.26569C69.8376 9.37961 69.8141 9.50165 69.8157 9.62461Z" fill="white"/>
<path d="M73.3797 8.15586H74.0769V8.72812H74.131C74.2228 8.52259 74.3776 8.35029 74.5739 8.23525C74.7703 8.1202 74.9982 8.06814 75.2261 8.08632C75.4047 8.07315 75.584 8.09958 75.7507 8.16365C75.9175 8.22773 76.0674 8.32781 76.1894 8.45649C76.3114 8.58516 76.4023 8.73913 76.4554 8.90699C76.5086 9.07484 76.5225 9.25228 76.4963 9.42616V11.7582H75.7721V9.60469C75.7721 9.02579 75.5158 8.73789 74.9802 8.73789C74.8589 8.73235 74.7379 8.75261 74.6254 8.79727C74.5129 8.84193 74.4116 8.90995 74.3283 8.99666C74.2451 9.08337 74.1819 9.18671 74.1432 9.29962C74.1045 9.41252 74.0911 9.53232 74.1039 9.65078V11.7582H73.3797V8.15586Z" fill="white"/>
<path d="M82.7106 10.7855C82.6122 11.1148 82.399 11.3996 82.1083 11.5901C81.8176 11.7806 81.4679 11.8647 81.1204 11.8277C80.8786 11.834 80.6383 11.7885 80.4163 11.6945C80.1942 11.6005 79.9956 11.4602 79.8343 11.2832C79.673 11.1063 79.5529 10.8971 79.4822 10.67C79.4116 10.443 79.3921 10.2035 79.4252 9.96836C79.393 9.73245 79.4128 9.4925 79.4833 9.26477C79.5538 9.03703 79.6733 8.82681 79.8337 8.64836C79.9942 8.4699 80.1918 8.32736 80.4132 8.23039C80.6347 8.13343 80.8747 8.0843 81.1172 8.08633C82.1383 8.08633 82.7543 8.77113 82.7543 9.90233V10.1504H80.163V10.1902C80.1516 10.3224 80.1685 10.4555 80.2127 10.5809C80.2568 10.7063 80.3271 10.8213 80.4191 10.9184C80.5111 11.0156 80.6228 11.0928 80.747 11.1451C80.8712 11.1975 81.0052 11.2237 81.1403 11.2222C81.3135 11.2427 81.4891 11.212 81.6445 11.1343C81.8 11.0565 81.9284 10.9351 82.0134 10.7855L82.7106 10.7855ZM80.1629 9.62461H82.0165C82.0257 9.50371 82.0089 9.38227 81.9674 9.2681C81.9259 9.15392 81.8605 9.04954 81.7754 8.96165C81.6903 8.87377 81.5875 8.80432 81.4734 8.75778C81.3594 8.71124 81.2367 8.68864 81.1132 8.69141C80.9879 8.68987 80.8636 8.71296 80.7476 8.75931C80.6316 8.80567 80.5262 8.87436 80.4376 8.96133C80.3491 9.0483 80.2791 9.15179 80.232 9.26571C80.1848 9.37962 80.1613 9.50166 80.1629 9.62461Z" fill="white"/>
<path d="M83.7603 6.7496H84.4846V11.7582H83.7603V6.7496Z" fill="white"/>
</g>
<defs>
<clipPath id="clip0_2048_1340">
<rect width="97.5238" height="32" fill="white"/>
</clipPath>
</defs>
</svg>
