<svg width="102" height="30" viewBox="0 0 102 30" fill="none" xmlns="http://www.w3.org/2000/svg">
<g clip-path="url(#clip0_2048_1376)">
<g clip-path="url(#clip1_2048_1376)">
<mask id="mask0_2048_1376" style="mask-type:luminance" maskUnits="userSpaceOnUse" x="0" y="0" width="102" height="30">
<path d="M101.772 0H0.523804V30H101.772V0Z" fill="white"/>
</mask>
<g mask="url(#mask0_2048_1376)">
<mask id="mask1_2048_1376" style="mask-type:luminance" maskUnits="userSpaceOnUse" x="0" y="0" width="102" height="30">
<path d="M101.772 0H0.523804V30H101.772V0Z" fill="white"/>
</mask>
<g mask="url(#mask1_2048_1376)">
<path d="M98.0218 30H4.27439C2.2118 30 0.523804 28.312 0.523804 26.2494V3.75059C0.523804 1.688 2.2118 0 4.27439 0H98.0234C100.086 0 101.774 1.688 101.774 3.75059V26.251C101.774 28.3136 100.086 30.0016 98.0234 30.0016" fill="black"/>
<path d="M98.0218 0.600282C99.7584 0.600282 101.172 2.014 101.172 3.75059V26.251C101.172 27.9876 99.7584 29.4013 98.0218 29.4013H4.27439C2.53781 29.4013 1.12409 27.9876 1.12409 26.251V3.75059C1.12409 2.01243 2.53624 0.600282 4.27439 0.600282H98.0234H98.0218ZM98.0218 0H4.27439C2.2118 0 0.523804 1.688 0.523804 3.75059V26.251C0.523804 28.3136 2.2118 30.0016 4.27439 30.0016H98.0234C100.086 30.0016 101.774 28.3136 101.774 26.251V3.75059C101.772 1.688 100.084 0 98.0218 0Z" fill="#A6A5A5"/>
<path d="M51.6246 16.3126C49.8614 16.3126 48.4226 17.6543 48.4226 19.5037C48.4226 21.3531 49.8598 22.6932 51.6246 22.6932C53.3894 22.6932 54.8266 21.339 54.8266 19.5037C54.8266 17.6684 53.3894 16.3126 51.6246 16.3126ZM51.6246 21.4362C50.6576 21.4362 49.8237 20.6384 49.8237 19.5037C49.8237 18.369 50.6576 17.5696 51.6246 17.5696C52.5916 17.5696 53.4239 18.3548 53.4239 19.5037C53.4239 20.6525 52.5901 21.4362 51.6246 21.4362ZM44.6391 16.3126C42.8758 16.3126 41.437 17.6543 41.437 19.5037C41.437 21.3531 42.8743 22.6932 44.6391 22.6932C46.4039 22.6932 47.8411 21.339 47.8411 19.5037C47.8411 17.6684 46.4023 16.3126 44.6391 16.3126ZM44.6391 21.4362C43.6736 21.4362 42.8398 20.6384 42.8398 19.5037C42.8398 18.369 43.6736 17.5696 44.6391 17.5696C45.6045 17.5696 46.4399 18.3548 46.4399 19.5037C46.4399 20.6525 45.6061 21.4362 44.6391 21.4362ZM36.3307 17.2922V18.6448H39.5688C39.4716 19.4065 39.2193 19.9613 38.8322 20.3485C38.3604 20.8202 37.6238 21.339 36.3307 21.339C34.3371 21.339 32.7776 19.7325 32.7776 17.7389C32.7776 15.7453 34.3355 14.1388 36.3307 14.1388C37.4059 14.1388 38.1911 14.5604 38.771 15.1042L39.7255 14.1497C38.9152 13.3771 37.84 12.7846 36.3307 12.7846C33.6005 12.7846 31.3043 15.0086 31.3043 17.7389C31.3043 20.4692 33.6005 22.6932 36.3307 22.6932C37.804 22.6932 38.9152 22.2089 39.7867 21.303C40.68 20.4096 40.959 19.1526 40.959 18.137C40.959 17.8235 40.9355 17.5336 40.8869 17.2922H36.3323H36.3307ZM70.3117 18.3423C70.0453 17.6292 69.2365 16.3126 67.5814 16.3126C65.9264 16.3126 64.5738 17.6057 64.5738 19.5037C64.5738 21.292 65.9264 22.6932 67.7382 22.6932C69.2005 22.6932 70.0453 21.7998 70.3963 21.2795L69.3086 20.5538C68.945 21.0851 68.4513 21.4362 67.7382 21.4362C67.025 21.4362 66.5172 21.1102 66.1912 20.4707L70.4559 18.7059L70.3117 18.3439V18.3423ZM65.9624 19.4065C65.9263 18.173 66.9169 17.5461 67.63 17.5461C68.1864 17.5461 68.6582 17.8235 68.8149 18.2232L65.964 19.4081L65.9624 19.4065ZM62.4939 22.4988H63.8951V13.1231H62.4939V22.4988ZM60.1978 17.0258H60.1492C59.8358 16.6512 59.2308 16.3126 58.4706 16.3126C56.8751 16.3126 55.4144 17.7138 55.4144 19.5147C55.4144 21.3155 56.8767 22.6916 58.4706 22.6916C59.2323 22.6916 59.8358 22.3531 60.1492 21.9659H60.1978V22.4252C60.1978 23.6461 59.5458 24.2981 58.4941 24.2981C57.6368 24.2981 57.1039 23.6822 56.8876 23.1634L55.6667 23.6712C56.0162 24.5175 56.9472 25.5567 58.4941 25.5567C60.1367 25.5567 61.5269 24.5896 61.5269 22.234V16.507H60.1978V17.0273V17.0258ZM58.5913 21.4362C57.6243 21.4362 56.8155 20.6275 56.8155 19.5162C56.8155 18.405 57.6243 17.5712 58.5913 17.5712C59.5583 17.5712 60.295 18.3925 60.295 19.5162C60.295 20.64 59.5458 21.4362 58.5913 21.4362ZM76.8772 13.1247H73.5247V22.5004H74.9227V18.9489H76.8772C78.4288 18.9489 79.9523 17.8251 79.9523 16.0368C79.9523 14.2485 78.4273 13.1247 76.8772 13.1247ZM76.9132 17.6433H74.9227V14.4287H76.9132C77.9602 14.4287 78.5542 15.2954 78.5542 16.0352C78.5542 16.775 77.9602 17.6417 76.9132 17.6417M85.5617 16.2954C84.5492 16.2954 83.4991 16.7421 83.065 17.7295L84.3078 18.2483C84.5727 17.7295 85.068 17.5602 85.5868 17.5602C86.3109 17.5602 87.0459 17.9944 87.0585 18.7655V18.8627C86.8046 18.7185 86.2623 18.5006 85.5993 18.5006C84.2608 18.5006 82.8973 19.2357 82.8973 20.6118C82.8973 21.8672 83.9959 22.6744 85.2247 22.6744C86.1667 22.6744 86.6839 22.2528 87.0099 21.7575H87.0585V22.4816H88.4095V18.8862C88.4095 17.2217 87.1682 16.2938 85.5633 16.2938M85.394 21.4315C84.9348 21.4315 84.2953 21.2027 84.2953 20.6353C84.2953 19.9112 85.0915 19.6353 85.7795 19.6353C86.3939 19.6353 86.6839 19.7686 87.0585 19.9488C86.9503 20.8171 86.2027 21.4331 85.394 21.4331M93.3309 16.4991L91.7259 20.5648H91.6774L90.0129 16.4991H88.5051L91.0018 22.1807L89.5787 25.3404H91.0379L94.8857 16.4991H93.3293H93.3309ZM80.7265 22.4973H82.1261V13.1216H80.7265V22.4973Z" fill="white"/>
<path d="M16.0622 14.5682L8.07669 23.0427C8.07669 23.0427 8.07669 23.0458 8.07669 23.0474C8.32119 23.9674 9.16127 24.6445 10.1597 24.6445C10.5593 24.6445 10.9323 24.5363 11.2536 24.3483L11.2787 24.3326L20.2673 19.1463L16.0606 14.5667L16.0622 14.5682Z" fill="#EA4435"/>
<path d="M24.1401 13.1247L24.1323 13.12L20.2516 10.8709L15.8804 14.761L20.2673 19.1463L24.126 16.9192C24.8031 16.5524 25.2623 15.8393 25.2623 15.018C25.2623 14.1968 24.8094 13.4915 24.1385 13.1247" fill="#F9BC15"/>
<path d="M8.07672 6.95733C8.02813 7.13444 8.00305 7.32095 8.00305 7.51216V22.4879C8.00305 22.6806 8.02813 22.8656 8.07672 23.0427L16.3349 14.7845L8.07515 6.95733H8.07672Z" fill="#547DBF"/>
<path d="M16.1202 15.0008L20.2532 10.8693L11.2756 5.66429C10.9496 5.46838 10.5687 5.35553 10.1612 5.35553C9.16441 5.35553 8.32276 6.03418 8.07669 6.95576C8.07669 6.95576 8.07669 6.95576 8.07669 6.95733L16.1217 15.0008H16.1202Z" fill="#33A851"/>
</g>
<path d="M31.8607 5.17842H33.3544C33.8371 5.17842 34.2587 5.2756 34.6176 5.47151C34.9765 5.66743 35.2524 5.94171 35.4467 6.29749C35.6411 6.6517 35.7367 7.05764 35.7367 7.51373C35.7367 7.96981 35.6395 8.37575 35.4467 8.72996C35.2524 9.08418 34.9765 9.36002 34.6176 9.55594C34.2587 9.75185 33.8387 9.84903 33.3544 9.84903H31.8607V5.17686V5.17842ZM33.3356 9.17195C33.8669 9.17195 34.2791 9.02462 34.5722 8.73153C34.8653 8.43844 35.0126 8.03251 35.0126 7.51529C35.0126 6.99808 34.8653 6.59214 34.5722 6.29906C34.2791 6.00597 33.8669 5.85864 33.3356 5.85864H32.5785V9.17351H33.3356V9.17195Z" fill="white"/>
<path d="M36.6771 5.17842H39.5092V5.85707H37.3949V7.17518H39.3008V7.85383H37.3949V9.17194H39.5092V9.85059H36.6771V5.17842Z" fill="white"/>
<path d="M40.7678 9.6155C40.459 9.3898 40.2443 9.07164 40.1221 8.66257L40.8007 8.38829C40.8697 8.65003 40.9951 8.86318 41.1722 9.02775C41.3508 9.19389 41.5656 9.27539 41.8179 9.27539C42.053 9.27539 42.252 9.21426 42.415 9.09201C42.578 8.96976 42.6595 8.80206 42.6595 8.5889C42.6595 8.39299 42.5874 8.23156 42.4448 8.10304C42.3006 7.97452 42.053 7.84913 41.7003 7.72845L41.4073 7.62344C41.0891 7.51059 40.8258 7.35229 40.6142 7.15011C40.4026 6.94792 40.2976 6.67991 40.2976 6.34451C40.2976 6.11411 40.3603 5.90096 40.4841 5.70504C40.6079 5.50913 40.7819 5.35553 41.006 5.24112C41.2301 5.12827 41.4841 5.07185 41.7662 5.07185C42.1705 5.07185 42.495 5.17059 42.7379 5.36807C42.9808 5.56555 43.147 5.78968 43.2332 6.03731L42.5874 6.31159C42.5436 6.15486 42.4527 6.02007 42.3132 5.90723C42.1737 5.79438 41.9934 5.73796 41.7709 5.73796C41.5483 5.73796 41.3775 5.79438 41.2286 5.90723C41.0813 6.02007 41.006 6.16427 41.006 6.33824C41.006 6.49967 41.0718 6.63289 41.2051 6.73947C41.3383 6.84605 41.5436 6.94792 41.821 7.04353L42.1204 7.14854C42.52 7.28803 42.8288 7.46827 43.0467 7.69083C43.2645 7.91339 43.3727 8.20805 43.3727 8.57793C43.3727 8.88199 43.2959 9.13746 43.1407 9.34435C42.9855 9.55124 42.7881 9.70483 42.5467 9.80357C42.3053 9.90388 42.0577 9.95404 41.8054 9.95404C41.4182 9.95404 41.0703 9.84119 40.7615 9.6155H40.7678Z" fill="white"/>
<path d="M45.2142 9.6343C44.8428 9.42114 44.5497 9.12806 44.3365 8.75347C44.1234 8.37888 44.0168 7.96668 44.0168 7.51372C44.0168 7.06077 44.1234 6.64856 44.3365 6.27397C44.5497 5.89939 44.8428 5.6063 45.2142 5.39314C45.5857 5.17999 45.9979 5.07341 46.4509 5.07341C47.1514 5.07341 47.7282 5.32732 48.1796 5.83669L47.6765 6.3257C47.5151 6.13448 47.3364 5.99029 47.1389 5.89468C46.9414 5.79908 46.7142 5.75049 46.4571 5.75049C46.139 5.75049 45.8506 5.82415 45.5888 5.96992C45.3271 6.11568 45.1218 6.32256 44.9682 6.589C44.8161 6.85702 44.7393 7.16421 44.7393 7.51215C44.7393 7.8601 44.8161 8.16729 44.9682 8.4353C45.1202 8.70331 45.3271 8.9102 45.5888 9.05439C45.8506 9.20015 46.139 9.27225 46.4571 9.27225C46.9884 9.27225 47.4336 9.05283 47.794 8.61398L48.3097 9.10925C48.084 9.37413 47.8113 9.58101 47.4947 9.72834C47.1765 9.87567 46.8286 9.9509 46.4509 9.9509C45.9979 9.9509 45.5857 9.84432 45.2142 9.63117V9.6343Z" fill="white"/>
<path d="M50.529 5.17842H51.344L53.112 9.85059H52.322L51.891 8.65003H49.9852L49.5541 9.85059H48.7642L50.5259 5.17842H50.529ZM51.6575 7.98392L51.1356 6.55139L50.96 6.01693H50.9208L50.7453 6.55139L50.2234 7.98392H51.6591H51.6575Z" fill="white"/>
<path d="M53.8173 5.17842H55.4551C55.7372 5.17842 55.9927 5.23955 56.2215 5.3618C56.4504 5.48405 56.6306 5.65332 56.7638 5.87117C56.897 6.08903 56.9629 6.3351 56.9629 6.60781C56.9629 6.92128 56.861 7.19869 56.6588 7.44006C56.4566 7.68143 56.2027 7.84286 55.8987 7.92593L55.8924 7.95884L57.1776 9.81141V9.85059H56.3485L55.1025 8.01683H54.5351V9.85059H53.8173V5.17842ZM55.4347 7.35699C55.6604 7.35699 55.8516 7.28489 56.0052 7.14227C56.1588 6.99807 56.2372 6.81783 56.2372 6.59998C56.2372 6.39936 56.1667 6.22539 56.0256 6.07493C55.8846 5.92446 55.6965 5.84923 55.4614 5.84923H54.5351V7.35699H55.4363H55.4347Z" fill="white"/>
<path d="M58.8483 9.6343C58.4738 9.42115 58.1775 9.12806 57.9581 8.7566C57.7387 8.38515 57.629 7.96981 57.629 7.51372C57.629 7.05763 57.7387 6.64229 57.9581 6.27084C58.1775 5.89939 58.4753 5.6063 58.8483 5.39314C59.2229 5.17999 59.632 5.07341 60.0756 5.07341C60.4329 5.07341 60.7605 5.1361 61.0614 5.26306C61.3623 5.39001 61.6162 5.56555 61.8247 5.79124L61.3294 6.28651C61.0112 5.92916 60.5943 5.75206 60.0771 5.75206C59.7731 5.75206 59.4878 5.82572 59.2229 5.97148C58.9581 6.11724 58.7465 6.32413 58.5897 6.59527C58.433 6.86485 58.3546 7.17205 58.3546 7.51529C58.3546 7.85853 58.4346 8.17043 58.5929 8.43844C58.7512 8.70645 58.9628 8.91334 59.2261 9.05753C59.4894 9.20329 59.7746 9.27538 60.0834 9.27538C60.5755 9.27538 60.9752 9.12179 61.284 8.81146C61.3843 8.71585 61.4673 8.5936 61.5347 8.44627C61.6021 8.29895 61.6491 8.13595 61.6742 7.95727H60.0693V7.32408H62.3403C62.367 7.4714 62.3795 7.59836 62.3795 7.7018C62.3795 7.99802 62.3325 8.27857 62.24 8.54658C62.146 8.81459 62.0018 9.04969 61.8059 9.25501C61.5974 9.4807 61.3466 9.65468 61.0551 9.77379C60.7636 9.89291 60.4376 9.95247 60.0771 9.95247C59.6336 9.95247 59.2245 9.84589 58.8499 9.63273L58.8483 9.6343Z" fill="white"/>
<path d="M64.4593 5.17842H65.2743L67.0423 9.85059H66.2523L65.8213 8.65003H63.9155L63.4845 9.85059H62.6945L64.4562 5.17842H64.4593ZM65.5878 7.98392L65.0659 6.55139L64.8903 6.01693H64.8512L64.6756 6.55139L64.1537 7.98392H65.5894H65.5878Z" fill="white"/>
<path d="M67.7476 5.17842H69.3854C69.6675 5.17842 69.923 5.23955 70.1518 5.3618C70.3807 5.48405 70.5609 5.65332 70.6941 5.87117C70.8273 6.08903 70.8932 6.3351 70.8932 6.60781C70.8932 6.92128 70.7913 7.19869 70.5891 7.44006C70.3869 7.68143 70.133 7.84286 69.829 7.92593L69.8227 7.95884L71.1079 9.81141V9.85059H70.2788L69.0328 8.01683H68.4654V9.85059H67.7476V5.17842ZM69.365 7.35699C69.5907 7.35699 69.7819 7.28489 69.9355 7.14227C70.0891 6.99807 70.1675 6.81783 70.1675 6.59998C70.1675 6.39936 70.097 6.22539 69.9559 6.07493C69.8149 5.92446 69.6268 5.84923 69.3917 5.84923H68.4654V7.35699H69.3666H69.365Z" fill="white"/>
<path d="M73.2489 5.17842H76.081V5.85707H73.9667V7.17518H75.8725V7.85383H73.9667V9.17194H76.081V9.85059H73.2489V5.17842Z" fill="white"/>
<path d="M77.0856 5.17842H77.9335L80.0479 8.61084H80.087L80.0479 7.70964V5.17842H80.7594V9.85059H80.0149L77.7972 6.24263H77.758L77.7972 7.14384V9.85216H77.0856V5.17999V5.17842Z" fill="white"/>
</g>
</g>
</g>
<defs>
<clipPath id="clip0_2048_1376">
<rect width="101.249" height="30" fill="white" transform="translate(0.523804)"/>
</clipPath>
<clipPath id="clip1_2048_1376">
<rect width="101.249" height="30" fill="white" transform="translate(0.523804)"/>
</clipPath>
</defs>
</svg>
